<?xml version="1.0" encoding="UTF-8" standalone="no"?>
<!-- Created with Inkscape (http://www.inkscape.org/) -->

<svg
   width="172.51534"
   height="56.323074"
   viewBox="0 0 45.644681 14.902147"
   version="1.1"
   id="svg1"
   inkscape:version="1.3.2 (091e20e, 2023-11-25, custom)"
   sodipodi:docname="CS-logo.svg"
   xmlns:inkscape="http://www.inkscape.org/namespaces/inkscape"
   xmlns:sodipodi="http://sodipodi.sourceforge.net/DTD/sodipodi-0.dtd"
   xmlns="http://www.w3.org/2000/svg"
   xmlns:svg="http://www.w3.org/2000/svg">
  <sodipodi:namedview
     id="namedview1"
     pagecolor="#ffffff"
     bordercolor="#111111"
     borderopacity="1"
     inkscape:showpageshadow="0"
     inkscape:pageopacity="0"
     inkscape:pagecheckerboard="1"
     inkscape:deskcolor="#d1d1d1"
     inkscape:document-units="mm"
     inkscape:zoom="3.9660278"
     inkscape:cx="122.2886"
     inkscape:cy="60.640019"
     inkscape:window-width="1920"
     inkscape:window-height="1001"
     inkscape:window-x="-9"
     inkscape:window-y="-9"
     inkscape:window-maximized="1"
     inkscape:current-layer="layer1" />
  <defs
     id="defs1">
    <clipPath
       clipPathUnits="userSpaceOnUse"
       id="clipPath340">
      <path
         d="M 0,0 H 841.89 V 595.276 H 0 Z"
         transform="translate(-728.13302,-334.15251)"
         id="path340" />
    </clipPath>
    <clipPath
       clipPathUnits="userSpaceOnUse"
       id="clipPath345">
      <path
         d="M 0,0 H 841.89 V 595.276 H 0 Z"
         transform="translate(-716.51327,-316.01181)"
         id="path345" />
    </clipPath>
  </defs>
  <g
     inkscape:label="Laag 1"
     inkscape:groupmode="layer"
     id="layer1"
     transform="translate(-1.0203204,-1.4456675)">
    <g
       id="g892"
       transform="matrix(0.26458333,0,0,0.26458333,-2641.658,-87.14438)">
      <g
         id="g333">
        <path
           id="path334"
           d="M 0,0 C 2.42,0 3.921,-1.44 4.181,-3.541 H 1.14 c -0.08,0.54 -0.5,0.94 -1.14,0.94 -0.881,0 -1.44,-0.82 -1.44,-2.1 0,-1.28 0.559,-2.08 1.44,-2.08 0.64,0 1.06,0.38 1.14,0.92 H 4.181 C 3.921,-7.941 2.42,-9.402 0,-9.402 c -2.701,0 -4.541,1.921 -4.541,4.701 C -4.541,-1.921 -2.701,0 0,0"
           style="fill:#231f20;fill-opacity:1;fill-rule:nonzero;stroke:none"
           transform="matrix(1.3333333,0,0,-1.3333333,10057.724,340.08267)" />
      </g>
      <g
         id="g334">
        <path
           id="path335"
           d="m 0,0 c -0.961,0 -1.78,0.66 -1.78,1.681 0,1.04 0.819,1.7 1.78,1.7 0.96,0 1.78,-0.66 1.78,-1.7 C 1.78,0.66 0.96,0 0,0 M 1.56,-9.762 H -1.581 V -0.76 H 1.56 Z"
           style="fill:#231f20;fill-opacity:1;fill-rule:nonzero;stroke:none"
           transform="matrix(1.3333333,0,0,-1.3333333,10066.977,339.33653)" />
      </g>
      <g
         id="g335">
        <path
           id="path336"
           d="m 0,0 c -0.381,0.2 -0.801,0.28 -1.301,0.28 -0.86,0 -1.44,-0.381 -1.6,-1.02 V -6.021 H -6.042 V 2.98 h 3.141 V 2.181 c 0.44,0.599 1.14,1 2.041,1 0.399,0 0.719,-0.08 0.86,-0.16 z"
           style="fill:#231f20;fill-opacity:1;fill-rule:nonzero;stroke:none"
           transform="matrix(1.3333333,0,0,-1.3333333,10079.378,344.3236)" />
      </g>
      <g
         id="g336">
        <path
           id="path337"
           d="M 0,0 C 2.42,0 3.921,-1.44 4.181,-3.541 H 1.14 c -0.08,0.54 -0.5,0.94 -1.14,0.94 -0.881,0 -1.44,-0.82 -1.44,-2.1 0,-1.28 0.559,-2.08 1.44,-2.08 0.64,0 1.06,0.38 1.14,0.92 H 4.181 C 3.921,-7.941 2.42,-9.402 0,-9.402 c -2.701,0 -4.541,1.921 -4.541,4.701 C -4.541,-1.921 -2.701,0 0,0"
           style="fill:#231f20;fill-opacity:1;fill-rule:nonzero;stroke:none"
           transform="matrix(1.3333333,0,0,-1.3333333,10086.31,340.08267)" />
      </g>
      <g
         id="g337">
        <path
           id="path338"
           d="m 718.112,331.012 h -3.141 v 13.003 h 3.141 z"
           style="fill:#231f20;fill-opacity:1;fill-rule:nonzero;stroke:none"
           transform="matrix(1.3333333,0,0,-1.3333333,9140.16,793.70133)" />
      </g>
      <g
         id="g338">
        <path
           id="path339"
           d="m 0,0 c -0.32,-2.08 -1.881,-3.341 -4.221,-3.341 -2.76,0 -4.581,1.901 -4.581,4.701 0,2.781 1.92,4.702 4.521,4.702 2.76,0 4.321,-1.841 4.321,-4.522 V 0.76 h -5.821 c 0.099,-1.08 0.66,-1.66 1.56,-1.66 0.64,0 1.14,0.28 1.321,0.9 z m -5.722,2.32 h 2.721 c -0.04,0.741 -0.5,1.301 -1.28,1.301 -0.74,0 -1.24,-0.46 -1.441,-1.301"
           style="fill:#231f20;fill-opacity:1;fill-rule:nonzero;stroke:none"
           transform="matrix(1.3333333,0,0,-1.3333333,10111.004,348.16467)"
           clip-path="url(#clipPath340)" />
      </g>
      <g
         id="g340">
        <path
           id="path341"
           d="m 0,0 c 0.14,-0.5 0.58,-0.78 1.14,-0.78 0.52,0 0.921,0.2 0.921,0.62 C 2.061,0.181 1.8,0.301 1.36,0.4 L -0.4,0.761 c -1.5,0.319 -2.481,1.04 -2.481,2.62 0,1.921 1.721,3.041 3.841,3.041 2.461,0 3.801,-1.141 4.081,-2.921 h -2.9 C 2.04,3.881 1.76,4.222 1.04,4.222 0.58,4.222 0.2,4.021 0.2,3.621 c 0,-0.28 0.2,-0.42 0.62,-0.5 l 1.781,-0.42 c 1.64,-0.38 2.52,-1.24 2.52,-2.701 0,-1.92 -1.74,-2.98 -3.941,-2.98 -2.3,0 -3.96,1.04 -4.241,2.98 z"
           style="fill:#231f20;fill-opacity:1;fill-rule:nonzero;stroke:none"
           transform="matrix(1.3333333,0,0,-1.3333333,10055.697,368.6452)" />
      </g>
      <g
         id="g341">
        <path
           id="path342"
           d="m 0,0 c -2.721,0 -4.601,1.921 -4.601,4.701 0,2.78 1.88,4.701 4.601,4.701 2.74,0 4.602,-1.921 4.602,-4.701 C 4.602,1.921 2.74,0 0,0 m 0,6.821 c -0.96,0 -1.5,-0.88 -1.5,-2.12 0,-1.24 0.54,-2.1 1.5,-2.1 0.98,0 1.521,0.86 1.521,2.1 0,1.24 -0.541,2.12 -1.521,2.12"
           style="fill:#231f20;fill-opacity:1;fill-rule:nonzero;stroke:none"
           transform="matrix(1.3333333,0,0,-1.3333333,10069.75,372.6192)" />
      </g>
      <g
         id="g342">
        <path
           id="path343"
           d="m 706.152,316.012 h -3.141 v 13.003 h 3.141 z"
           style="fill:#231f20;fill-opacity:1;fill-rule:nonzero;stroke:none"
           transform="matrix(1.3333333,0,0,-1.3333333,9140.16,793.70133)" />
      </g>
      <g
         id="g343">
        <path
           id="path344"
           d="m 0,0 h -3.141 v 0.78 c -0.48,-0.56 -1.38,-0.98 -2.4,-0.98 -1.98,0 -3.161,1.301 -3.161,3.301 v 5.901 h 3.121 V 3.841 c 0,-0.76 0.36,-1.3 1.16,-1.3 0.58,0 1.12,0.38 1.28,1 V 9.002 H 0 Z"
           style="fill:#231f20;fill-opacity:1;fill-rule:nonzero;stroke:none"
           transform="matrix(1.3333333,0,0,-1.3333333,10095.511,372.35227)"
           clip-path="url(#clipPath345)" />
      </g>
      <g
         id="g345">
        <path
           id="path346"
           d="M 0,0 H -1.32 V 2.44 H 0 V 4.921 H 3.101 V 2.44 h 1.88 V 0 h -1.88 v -3.001 c 0,-0.7 0.34,-1 0.961,-1 0.339,0 0.719,0.08 1,0.2 V -6.462 C 4.701,-6.621 4.021,-6.741 3.321,-6.741 1.2,-6.741 0,-5.741 0,-3.461 Z"
           style="fill:#231f20;fill-opacity:1;fill-rule:nonzero;stroke:none"
           transform="matrix(1.3333333,0,0,-1.3333333,10098.628,363.60347)" />
      </g>
      <g
         id="g346">
        <path
           id="path347"
           d="m 0,0 c -0.961,0 -1.781,0.66 -1.781,1.681 0,1.04 0.82,1.7 1.781,1.7 0.96,0 1.78,-0.66 1.78,-1.7 C 1.78,0.66 0.96,0 0,0 M 1.56,-9.762 H -1.581 V -0.76 H 1.56 Z"
           style="fill:#231f20;fill-opacity:1;fill-rule:nonzero;stroke:none"
           transform="matrix(1.3333333,0,0,-1.3333333,10109.403,359.33653)" />
      </g>
      <g
         id="g347">
        <path
           id="path348"
           d="m 0,0 c -2.721,0 -4.601,1.921 -4.601,4.701 0,2.78 1.88,4.701 4.601,4.701 2.74,0 4.602,-1.921 4.602,-4.701 C 4.602,1.921 2.74,0 0,0 m 0,6.821 c -0.96,0 -1.5,-0.88 -1.5,-2.12 0,-1.24 0.54,-2.1 1.5,-2.1 0.98,0 1.521,0.86 1.521,2.1 0,1.24 -0.541,2.12 -1.521,2.12"
           style="fill:#231f20;fill-opacity:1;fill-rule:nonzero;stroke:none"
           transform="matrix(1.3333333,0,0,-1.3333333,10119.242,372.6192)" />
      </g>
      <g
         id="g348">
        <path
           id="path349"
           d="m 0,0 h 3.141 v -0.78 c 0.501,0.56 1.38,0.98 2.421,0.98 2,0 3.18,-1.301 3.18,-3.301 V -9.002 H 5.621 v 5.141 c 0,0.74 -0.38,1.28 -1.18,1.28 -0.62,0 -1.14,-0.359 -1.3,-0.98 V -9.002 H 0 Z"
           style="fill:#231f20;fill-opacity:1;fill-rule:nonzero;stroke:none"
           transform="matrix(1.3333333,0,0,-1.3333333,10127,360.3496)" />
      </g>
      <g
         id="g349">
        <path
           id="path350"
           d="m 0,0 c 0.14,-0.5 0.58,-0.78 1.14,-0.78 0.52,0 0.921,0.2 0.921,0.62 C 2.061,0.181 1.8,0.301 1.36,0.4 L -0.4,0.761 c -1.5,0.319 -2.481,1.04 -2.481,2.62 0,1.921 1.721,3.041 3.841,3.041 2.461,0 3.801,-1.141 4.081,-2.921 h -2.9 C 2.04,3.881 1.76,4.222 1.04,4.222 0.58,4.222 0.2,4.021 0.2,3.621 c 0,-0.28 0.2,-0.42 0.62,-0.5 l 1.781,-0.42 c 1.64,-0.38 2.52,-1.24 2.52,-2.701 0,-1.92 -1.74,-2.98 -3.941,-2.98 -2.3,0 -3.96,1.04 -4.241,2.98 z"
           style="fill:#231f20;fill-opacity:1;fill-rule:nonzero;stroke:none"
           transform="matrix(1.3333333,0,0,-1.3333333,10144.228,368.6452)" />
      </g>
      <g
         id="g350">
        <path
           id="path351"
           d="m 0,0 c 0,-0.829 -0.46,-1.279 -1.289,-1.279 -0.09,0 -0.24,0.009 -0.319,0.04 V -0.6 c 0.059,-0.009 0.17,-0.03 0.259,-0.03 0.39,0 0.6,0.18 0.6,0.68 V 4.947 H 0 Z m -0.38,5.807 c -0.26,0 -0.479,0.219 -0.479,0.479 0,0.271 0.219,0.481 0.479,0.481 0.271,0 0.49,-0.21 0.49,-0.481 0,-0.26 -0.219,-0.479 -0.49,-0.479"
           style="fill:#231f20;fill-opacity:1;fill-rule:nonzero;stroke:none"
           transform="matrix(1.3333333,0,0,-1.3333333,10053.861,389.44627)" />
      </g>
      <g
         id="g351">
        <path
           id="path352"
           d="m 0,0 h -0.76 v 0.56 c -0.25,-0.35 -0.719,-0.65 -1.289,-0.65 -1.01,0 -1.55,0.65 -1.55,1.619 v 2.908 h 0.76 V 1.649 c 0,-0.62 0.3,-1.049 0.97,-1.049 0.519,0 0.949,0.349 1.109,0.83 V 4.437 H 0 Z"
           style="fill:#231f20;fill-opacity:1;fill-rule:nonzero;stroke:none"
           transform="matrix(1.3333333,0,0,-1.3333333,10060.34,388.76667)" />
      </g>
      <g
         id="g352">
        <path
           id="path353"
           d="m 0,0 c 0.141,-0.46 0.53,-0.68 1.05,-0.68 0.529,0 0.909,0.21 0.909,0.659 0,0.31 -0.199,0.5 -0.659,0.621 L 0.42,0.829 c -0.63,0.16 -1.069,0.48 -1.069,1.169 0,0.79 0.689,1.31 1.588,1.31 0.98,0 1.56,-0.48 1.72,-1.259 H 1.909 C 1.779,2.448 1.47,2.678 0.93,2.678 c -0.44,0 -0.85,-0.21 -0.85,-0.64 0,-0.3 0.2,-0.439 0.62,-0.559 l 0.859,-0.21 c 0.76,-0.2 1.129,-0.62 1.129,-1.24 0,-0.838 -0.699,-1.338 -1.648,-1.338 -0.97,0 -1.68,0.489 -1.819,1.309 z"
           style="fill:#231f20;fill-opacity:1;fill-rule:nonzero;stroke:none"
           transform="matrix(1.3333333,0,0,-1.3333333,10062.662,387.14027)" />
      </g>
      <g
         id="g353">
        <path
           id="path354"
           d="M 0,0 H -0.72 V 0.64 H 0 V 1.808 H 0.749 V 0.64 H 1.818 V 0 H 0.749 v -2.599 c 0,-0.429 0.21,-0.619 0.59,-0.619 0.21,0 0.43,0.079 0.58,0.18 v -0.7 c -0.17,-0.09 -0.43,-0.15 -0.7,-0.15 -0.72,0 -1.219,0.39 -1.219,1.209 z"
           style="fill:#231f20;fill-opacity:1;fill-rule:nonzero;stroke:none"
           transform="matrix(1.3333333,0,0,-1.3333333,10067.916,383.70267)" />
      </g>
      <g
         id="g354">
        <path
           id="path355"
           d="M 0,0 C 0.999,0 1.629,-0.579 1.778,-1.429 H 1.009 c -0.1,0.48 -0.48,0.77 -1.009,0.77 -0.76,0 -1.26,-0.68 -1.26,-1.65 0,-0.969 0.5,-1.649 1.26,-1.649 0.529,0 0.909,0.29 1.009,0.77 H 1.778 C 1.629,-4.038 0.999,-4.617 0,-4.617 c -1.189,0 -2.019,0.929 -2.019,2.308 C -2.019,-0.93 -1.189,0 0,0"
           style="fill:#231f20;fill-opacity:1;fill-rule:nonzero;stroke:none"
           transform="matrix(1.3333333,0,0,-1.3333333,10077.074,382.73013)" />
      </g>
      <g
         id="g355">
        <path
           id="path356"
           d="m 0,0 c -1.22,0 -2.039,0.949 -2.039,2.308 0,1.36 0.819,2.309 2.039,2.309 1.209,0 2.039,-0.949 2.039,-2.309 C 2.039,0.949 1.209,0 0,0 m 0,3.958 c -0.8,0 -1.279,-0.68 -1.279,-1.65 0,-0.969 0.479,-1.649 1.279,-1.649 0.8,0 1.279,0.68 1.279,1.649 0,0.97 -0.479,1.65 -1.279,1.65"
           style="fill:#231f20;fill-opacity:1;fill-rule:nonzero;stroke:none"
           transform="matrix(1.3333333,0,0,-1.3333333,10083.021,388.88627)" />
      </g>
      <g
         id="g356">
        <path
           id="path357"
           d="m 0,0 h 0.749 v -0.56 c 0.26,0.35 0.74,0.65 1.31,0.65 1.009,0 1.559,-0.65 1.559,-1.619 V -4.437 H 2.859 v 2.788 c 0,0.62 -0.311,1.05 -0.98,1.05 -0.52,0 -0.97,-0.35 -1.13,-0.83 V -4.437 H 0 Z"
           style="fill:#231f20;fill-opacity:1;fill-rule:nonzero;stroke:none"
           transform="matrix(1.3333333,0,0,-1.3333333,10087.103,382.85)" />
      </g>
      <g
         id="g357">
        <path
           id="path358"
           d="m 0,0 h 0.749 v -0.56 c 0.26,0.35 0.74,0.65 1.31,0.65 1.009,0 1.559,-0.65 1.559,-1.619 v -2.908 h -0.76 v 2.788 c 0,0.62 -0.31,1.05 -0.979,1.05 -0.52,0 -0.97,-0.35 -1.13,-0.83 V -4.437 H 0 Z"
           style="fill:#231f20;fill-opacity:1;fill-rule:nonzero;stroke:none"
           transform="matrix(1.3333333,0,0,-1.3333333,10093.623,382.85)" />
      </g>
      <g
         id="g358">
        <path
           id="path359"
           d="m 0,0 c -0.16,-0.84 -0.79,-1.419 -1.789,-1.419 -1.209,0 -2.039,0.93 -2.039,2.299 0,1.329 0.81,2.318 2.019,2.318 1.219,0 1.869,-0.889 1.869,-2.178 V 0.75 h -3.138 c 0.01,-0.95 0.539,-1.529 1.289,-1.529 0.55,0 0.96,0.279 1.079,0.779 z m -3.059,1.319 h 2.36 c -0.011,0.66 -0.36,1.24 -1.1,1.24 -0.67,0 -1.149,-0.46 -1.26,-1.24"
           style="fill:#231f20;fill-opacity:1;fill-rule:nonzero;stroke:none"
           transform="matrix(1.3333333,0,0,-1.3333333,10104.819,386.9944)" />
      </g>
      <g
         id="g359">
        <path
           id="path360"
           d="M 0,0 C 0.999,0 1.629,-0.579 1.778,-1.429 H 1.009 c -0.1,0.48 -0.48,0.77 -1.009,0.77 -0.76,0 -1.26,-0.68 -1.26,-1.65 0,-0.969 0.5,-1.649 1.26,-1.649 0.529,0 0.909,0.29 1.009,0.77 H 1.778 C 1.629,-4.038 0.999,-4.617 0,-4.617 c -1.19,0 -2.02,0.929 -2.02,2.308 C -2.02,-0.93 -1.19,0 0,0"
           style="fill:#231f20;fill-opacity:1;fill-rule:nonzero;stroke:none"
           transform="matrix(1.3333333,0,0,-1.3333333,10108.528,382.73013)" />
      </g>
      <g
         id="g360">
        <path
           id="path361"
           d="M 0,0 H -0.72 V 0.64 H 0 V 1.808 H 0.749 V 0.64 H 1.818 V 0 H 0.749 v -2.599 c 0,-0.429 0.21,-0.619 0.59,-0.619 0.21,0 0.43,0.079 0.58,0.18 v -0.7 c -0.17,-0.09 -0.43,-0.15 -0.7,-0.15 -0.72,0 -1.219,0.39 -1.219,1.209 z"
           style="fill:#231f20;fill-opacity:1;fill-rule:nonzero;stroke:none"
           transform="matrix(1.3333333,0,0,-1.3333333,10112.529,383.70267)" />
      </g>
      <g
         id="g361">
        <path
           id="path362"
           d="M 0,0 H -0.72 V 0.64 H 0 V 1.808 H 0.749 V 0.64 H 1.818 V 0 H 0.749 v -2.599 c 0,-0.429 0.21,-0.619 0.59,-0.619 0.21,0 0.43,0.079 0.58,0.18 v -0.7 c -0.17,-0.09 -0.43,-0.15 -0.7,-0.15 -0.72,0 -1.219,0.39 -1.219,1.209 z"
           style="fill:#231f20;fill-opacity:1;fill-rule:nonzero;stroke:none"
           transform="matrix(1.3333333,0,0,-1.3333333,10119.702,383.70267)" />
      </g>
      <g
         id="g362">
        <path
           id="path363"
           d="m 0,0 h 0.749 v -2.618 c 0.26,0.349 0.74,0.649 1.31,0.649 1.009,0 1.559,-0.649 1.559,-1.619 v -2.908 h -0.76 v 2.788 c 0,0.62 -0.31,1.05 -0.979,1.05 -0.52,0 -0.97,-0.35 -1.13,-0.829 V -6.496 H 0 Z"
           style="fill:#231f20;fill-opacity:1;fill-rule:nonzero;stroke:none"
           transform="matrix(1.3333333,0,0,-1.3333333,10123.649,380.1052)" />
      </g>
      <g
         id="g363">
        <path
           id="path364"
           d="m 0,0 c -0.16,-0.84 -0.79,-1.419 -1.789,-1.419 -1.209,0 -2.039,0.93 -2.039,2.299 0,1.329 0.809,2.318 2.019,2.318 1.219,0 1.868,-0.889 1.868,-2.178 V 0.75 h -3.137 c 0.01,-0.95 0.539,-1.529 1.289,-1.529 0.55,0 0.96,0.279 1.079,0.779 z m -3.059,1.319 h 2.36 c -0.011,0.66 -0.361,1.24 -1.1,1.24 -0.67,0 -1.149,-0.46 -1.26,-1.24"
           style="fill:#231f20;fill-opacity:1;fill-rule:nonzero;stroke:none"
           transform="matrix(1.3333333,0,0,-1.3333333,10134.845,386.9944)" />
      </g>
      <g
         id="g364">
        <path
           id="path365"
           d="m 0,0 c -0.22,-0.319 -0.699,-0.609 -1.249,-0.609 -1.299,0 -1.999,1.05 -1.999,2.308 0,1.249 0.7,2.309 1.999,2.309 0.55,0 1.029,-0.29 1.249,-0.609 V 5.977 H 0.76 V -0.52 H 0 Z m 0,2.599 c -0.229,0.46 -0.669,0.729 -1.139,0.729 -0.849,0 -1.349,-0.689 -1.349,-1.629 0,-0.939 0.5,-1.629 1.349,-1.629 0.47,0 0.91,0.27 1.139,0.73 z"
           style="fill:#231f20;fill-opacity:1;fill-rule:nonzero;stroke:none"
           transform="matrix(1.3333333,0,0,-1.3333333,10143.112,388.07387)" />
      </g>
      <g
         id="g365">
        <path
           id="path366"
           d="m 0,0 c -1.22,0 -2.039,0.949 -2.039,2.308 0,1.36 0.819,2.309 2.039,2.309 1.209,0 2.039,-0.949 2.039,-2.309 C 2.039,0.949 1.209,0 0,0 m 0,3.958 c -0.8,0 -1.279,-0.68 -1.279,-1.65 0,-0.969 0.479,-1.649 1.279,-1.649 0.8,0 1.279,0.68 1.279,1.649 0,0.97 -0.479,1.65 -1.279,1.65"
           style="fill:#231f20;fill-opacity:1;fill-rule:nonzero;stroke:none"
           transform="matrix(1.3333333,0,0,-1.3333333,10148.193,388.88627)" />
      </g>
      <g
         id="g366">
        <path
           id="path367"
           d="M 0,0 H -0.72 V 0.64 H 0 V 1.808 H 0.749 V 0.64 H 1.818 V 0 H 0.749 v -2.599 c 0,-0.429 0.21,-0.619 0.59,-0.619 0.21,0 0.429,0.079 0.58,0.18 v -0.7 c -0.17,-0.09 -0.43,-0.15 -0.7,-0.15 -0.72,0 -1.219,0.39 -1.219,1.209 z"
           style="fill:#231f20;fill-opacity:1;fill-rule:nonzero;stroke:none"
           transform="matrix(1.3333333,0,0,-1.3333333,10152.555,383.70267)" />
      </g>
      <g
         id="g367">
        <path
           id="path368"
           d="m 0,0 c 0.141,-0.46 0.53,-0.68 1.05,-0.68 0.529,0 0.909,0.21 0.909,0.659 0,0.31 -0.199,0.5 -0.659,0.621 L 0.42,0.829 c -0.63,0.16 -1.07,0.48 -1.07,1.169 0,0.79 0.69,1.31 1.589,1.31 0.98,0 1.56,-0.48 1.72,-1.259 H 1.909 C 1.779,2.448 1.47,2.678 0.93,2.678 c -0.44,0 -0.85,-0.21 -0.85,-0.64 0,-0.3 0.2,-0.439 0.62,-0.559 l 0.859,-0.21 c 0.76,-0.2 1.129,-0.62 1.129,-1.24 0,-0.838 -0.699,-1.338 -1.648,-1.338 -0.97,0 -1.68,0.489 -1.819,1.309 z"
           style="fill:#231f20;fill-opacity:1;fill-rule:nonzero;stroke:none"
           transform="matrix(1.3333333,0,0,-1.3333333,10157.007,387.14027)" />
      </g>
      <g
         id="g368">
        <path
           id="path369"
           d="m 0,0 c 8.135,0 14.754,-6.756 14.754,-15.061 0,-8.305 -6.619,-15.061 -14.754,-15.061 -8.135,0 -14.754,6.756 -14.754,15.061 C -14.754,-6.756 -8.135,0 0,0 m 0,5.191 c -11.015,0 -19.945,-9.067 -19.945,-20.252 0,-11.185 8.93,-20.252 19.945,-20.252 11.015,0 19.945,9.067 19.945,20.252 0,11.185 -8.93,20.252 -19.945,20.252"
           style="fill:#231f20;fill-opacity:1;fill-rule:nonzero;stroke:none"
           transform="matrix(1.3333333,0,0,-1.3333333,10014.669,341.75027)" />
      </g>
    </g>
  </g>
</svg>
